<?xml version="1.0" standalone="no"?>
<!DOCTYPE svg PUBLIC "-//W3C//DTD SVG 20010904//EN"
 "http://www.w3.org/TR/2001/REC-SVG-20010904/DTD/svg10.dtd">
<svg version="1.0" xmlns="http://www.w3.org/2000/svg"
 width="339.000000pt" height="299.000000pt" viewBox="0 0 339.000000 299.000000"
 preserveAspectRatio="xMidYMid meet">

<g transform="translate(0.000000,299.000000) scale(0.100000,-0.100000)"
fill="#000000" stroke="none">
<path d="M1635 2961 c-60 -16 -112 -51 -186 -128 -66 -68 -414 -446 -1044
-1133 -99 -107 -217 -235 -263 -285 -96 -103 -122 -147 -122 -207 0 -55 27
-99 76 -124 36 -17 70 -19 429 -24 288 -4 396 -8 412 -18 12 -7 35 -29 50 -49
l28 -36 5 -356 c5 -339 6 -358 27 -403 27 -60 94 -127 158 -158 l50 -25 440 0
440 0 50 25 c64 31 124 91 155 155 25 50 25 52 30 407 5 340 6 358 26 384 11
15 33 37 48 48 26 20 43 21 419 26 361 5 395 7 431 24 49 25 76 69 76 124 0
78 16 57 -386 493 -149 162 -432 470 -628 684 -452 492 -481 521 -538 551 -51
26 -136 38 -183 25z m123 -153 c40 -22 157 -148 1299 -1392 95 -103 173 -194
173 -202 0 -10 -72 -13 -387 -16 -380 -3 -389 -3 -433 -26 -69 -34 -112 -74
-145 -133 l-30 -54 -5 -355 c-5 -378 -6 -387 -57 -432 -50 -46 -71 -48 -478
-48 -407 0 -428 2 -478 48 -51 45 -52 54 -57 432 l-5 355 -30 53 c-33 61 -66
92 -139 130 l-51 27 -388 3 c-321 3 -387 5 -387 17 0 8 322 364 715 792 714
777 759 823 820 823 11 0 40 -10 63 -22z"/>
</g>
</svg>
