<svg id="svg" version="1.1" xmlns="http://www.w3.org/2000/svg" xmlns:xlink="http://www.w3.org/1999/xlink" width="400" height="354.8117154811716" viewBox="0, 0, 400,354.8117154811716"><g id="svgg"><path id="path0" d="M191.308 5.139 C 190.881 5.938,190.609 6.034,188.760 6.034 C 186.927 6.034,186.690 6.115,186.690 6.744 C 186.690 7.347,186.454 7.453,185.116 7.453 C 183.159 7.453,181.721 7.976,181.721 8.687 C 181.721 9.028,181.393 9.228,180.834 9.228 C 180.124 9.228,179.947 9.406,179.947 10.115 C 179.947 10.865,179.781 11.003,178.882 11.003 C 178.296 11.003,177.512 11.308,177.140 11.680 C 176.767 12.053,176.168 12.414,175.809 12.482 C 175.449 12.551,175.106 12.955,175.045 13.380 C 174.976 13.860,174.640 14.195,174.157 14.264 C 173.674 14.333,173.339 14.667,173.270 15.151 C 173.201 15.635,172.867 15.970,172.383 16.039 C 171.891 16.108,171.564 16.442,171.493 16.948 C 171.420 17.461,171.134 17.746,170.694 17.746 C 170.200 17.746,170.009 17.994,170.009 18.634 C 170.009 19.268,169.817 19.521,169.337 19.521 C 168.572 19.521,168.234 20.182,168.234 21.679 C 168.234 22.525,168.084 22.715,167.414 22.715 C 166.312 22.715,165.040 23.959,165.040 25.036 C 165.040 25.735,164.860 25.909,164.136 25.909 C 162.974 25.909,161.491 27.392,161.491 28.555 C 161.491 29.279,161.316 29.459,160.617 29.459 C 159.540 29.459,158.296 30.731,158.296 31.833 C 158.296 32.471,158.100 32.653,157.409 32.653 C 156.699 32.653,156.522 32.831,156.522 33.540 C 156.522 34.188,156.332 34.428,155.819 34.428 C 155.354 34.428,155.036 34.747,154.880 35.366 C 154.580 36.562,153.687 37.455,152.491 37.755 C 151.882 37.908,151.553 38.231,151.553 38.675 C 151.553 39.619,150.037 41.171,149.116 41.171 C 148.631 41.171,148.358 41.395,148.358 41.794 C 148.358 42.540,146.717 44.163,145.605 44.516 C 145.165 44.655,144.809 45.057,144.809 45.413 C 144.809 45.767,144.494 46.140,144.109 46.240 C 143.612 46.370,143.342 46.845,143.177 47.879 C 143.000 48.982,142.783 49.335,142.279 49.335 C 141.807 49.335,141.615 49.591,141.615 50.222 C 141.615 50.932,141.437 51.109,140.728 51.109 C 140.018 51.109,139.840 51.287,139.840 51.996 C 139.840 52.706,139.663 52.884,138.953 52.884 C 138.321 52.884,138.066 53.076,138.066 53.552 C 138.066 53.930,137.746 54.304,137.329 54.413 C 136.925 54.519,136.507 54.937,136.401 55.342 C 136.292 55.758,135.918 56.078,135.540 56.078 C 135.063 56.078,134.871 56.333,134.871 56.965 C 134.871 57.668,134.692 57.853,134.009 57.853 C 133.384 57.853,133.115 58.073,133.033 58.651 C 132.960 59.164,132.634 59.490,132.121 59.563 C 131.607 59.636,131.322 59.922,131.322 60.362 C 131.322 60.799,131.077 61.047,130.646 61.047 C 130.103 61.047,129.921 61.398,129.725 62.822 C 129.529 64.245,129.347 64.596,128.804 64.596 C 128.373 64.596,128.128 64.844,128.128 65.281 C 128.128 65.722,127.842 66.007,127.329 66.080 C 126.816 66.153,126.490 66.479,126.417 66.992 C 126.335 67.570,126.066 67.791,125.441 67.791 C 124.758 67.791,124.579 67.975,124.579 68.678 C 124.579 69.335,124.390 69.565,123.853 69.565 C 122.916 69.565,121.384 71.097,121.384 72.034 C 121.384 72.538,121.153 72.760,120.626 72.760 C 119.724 72.760,118.284 74.215,117.977 75.437 C 117.841 75.978,117.504 76.309,117.087 76.309 C 116.607 76.309,116.415 76.562,116.415 77.196 C 116.415 77.830,116.223 78.083,115.743 78.083 C 114.981 78.083,114.641 78.744,114.641 80.222 C 114.641 81.162,114.530 81.245,113.132 81.346 C 111.631 81.455,111.623 81.463,111.515 82.964 C 111.409 84.418,111.363 84.472,110.209 84.472 C 108.688 84.472,107.897 85.263,107.897 86.784 C 107.897 87.937,107.843 87.984,106.392 88.090 C 105.282 88.170,104.855 88.365,104.766 88.832 C 104.700 89.180,104.259 89.852,103.787 90.324 C 103.315 90.797,102.928 91.579,102.928 92.062 C 102.928 92.703,102.712 92.972,102.130 93.054 C 101.616 93.127,101.290 93.453,101.218 93.966 C 101.145 94.479,100.859 94.765,100.419 94.765 C 99.979 94.765,99.734 95.010,99.734 95.450 C 99.734 95.890,99.448 96.176,98.935 96.249 C 98.430 96.320,98.096 96.647,98.026 97.139 C 97.957 97.623,97.623 97.957,97.139 98.026 C 96.647 98.096,96.320 98.430,96.249 98.935 C 96.176 99.448,95.890 99.734,95.450 99.734 C 95.073 99.734,94.765 99.977,94.765 100.274 C 94.765 100.571,94.366 100.996,93.878 101.218 C 93.390 101.440,92.990 101.905,92.990 102.251 C 92.990 102.632,92.676 102.923,92.192 102.992 C 91.510 103.089,91.377 103.353,91.285 104.791 C 91.187 106.314,91.092 106.477,90.309 106.477 C 89.678 106.477,89.441 106.671,89.441 107.187 C 89.441 107.660,89.204 107.897,88.731 107.897 C 88.211 107.897,88.021 108.134,88.021 108.784 C 88.021 109.494,87.844 109.672,87.134 109.672 C 86.424 109.672,86.247 109.849,86.247 110.559 C 86.247 111.269,86.069 111.446,85.359 111.446 C 84.709 111.446,84.472 111.636,84.472 112.156 C 84.472 112.627,84.235 112.866,83.769 112.866 C 83.315 112.866,82.987 113.180,82.843 113.753 C 82.704 114.309,82.369 114.641,81.949 114.641 C 81.470 114.641,81.278 114.894,81.278 115.528 C 81.278 116.221,81.096 116.415,80.450 116.415 C 79.931 116.415,79.446 116.746,79.148 117.303 C 78.887 117.791,78.461 118.190,78.201 118.190 C 77.932 118.190,77.728 118.577,77.728 119.088 C 77.728 119.582,77.495 120.076,77.210 120.186 C 76.924 120.295,76.594 120.690,76.476 121.062 C 76.358 121.434,76.038 121.739,75.765 121.739 C 75.183 121.739,74.534 122.822,74.534 123.795 C 74.534 124.312,74.167 124.555,73.027 124.796 C 71.617 125.093,71.499 125.211,71.202 126.621 C 70.909 128.008,70.795 128.128,69.763 128.128 C 68.342 128.128,67.791 128.682,67.791 130.111 C 67.791 131.179,67.702 131.255,66.193 131.481 L 64.596 131.721 64.596 133.296 C 64.596 134.728,64.518 134.871,63.734 134.871 C 63.109 134.871,62.840 135.092,62.758 135.670 C 62.685 136.183,62.359 136.509,61.846 136.582 C 61.353 136.652,61.047 136.942,61.047 137.339 C 61.047 137.693,60.728 138.066,60.337 138.169 C 59.912 138.280,59.627 138.653,59.627 139.097 C 59.627 139.653,59.404 139.840,58.740 139.840 C 58.030 139.840,57.853 140.018,57.853 140.728 C 57.853 141.437,57.675 141.615,56.965 141.615 C 56.332 141.615,56.078 141.807,56.078 142.286 C 56.078 142.706,55.746 143.041,55.191 143.180 C 54.641 143.318,54.303 143.655,54.303 144.065 C 54.303 144.429,53.984 144.810,53.594 144.912 C 53.169 145.023,52.884 145.396,52.884 145.841 C 52.884 146.397,52.660 146.584,51.996 146.584 C 51.181 146.584,51.109 146.714,51.109 148.181 C 51.109 149.648,51.037 149.778,50.222 149.778 C 49.519 149.778,49.335 149.957,49.335 150.641 C 49.335 151.265,49.114 151.535,48.536 151.617 C 48.023 151.690,47.697 152.016,47.624 152.529 C 47.551 153.042,47.266 153.327,46.825 153.327 C 46.385 153.327,46.140 153.572,46.140 154.013 C 46.140 154.453,45.855 154.738,45.342 154.811 C 44.836 154.883,44.502 155.210,44.432 155.701 C 44.364 156.185,44.029 156.520,43.545 156.589 C 43.054 156.659,42.727 156.992,42.655 157.498 C 42.584 157.999,42.296 158.296,41.881 158.296 C 41.466 158.296,41.178 158.594,41.107 159.095 C 41.034 159.608,40.708 159.934,40.195 160.007 C 39.511 160.104,39.397 160.335,39.397 161.625 C 39.397 163.105,39.373 163.134,37.888 163.463 C 36.536 163.763,36.346 163.935,36.051 165.129 C 35.821 166.060,35.528 166.460,35.075 166.460 C 34.719 166.460,34.428 166.631,34.428 166.840 C 34.428 167.299,33.537 168.234,33.100 168.234 C 32.588 168.234,30.958 170.129,30.822 170.882 C 30.739 171.345,30.297 171.660,29.499 171.823 C 28.127 172.103,27.697 172.621,27.690 174.002 C 27.685 174.842,27.540 174.978,26.648 174.978 C 25.065 174.978,24.490 175.325,24.490 176.281 C 24.490 177.438,23.881 178.527,23.235 178.527 C 22.949 178.527,22.715 178.835,22.715 179.212 C 22.715 179.653,22.430 179.938,21.917 180.011 C 21.403 180.084,21.077 180.410,21.005 180.923 C 20.932 181.433,20.646 181.721,20.213 181.721 C 19.785 181.721,19.452 182.049,19.312 182.609 C 19.172 183.164,18.838 183.496,18.418 183.496 C 17.996 183.496,17.746 183.745,17.746 184.167 C 17.746 184.588,17.414 184.922,16.859 185.061 C 16.300 185.202,15.972 185.535,15.972 185.963 C 15.972 186.396,15.683 186.682,15.173 186.754 C 14.660 186.827,14.334 187.153,14.261 187.666 C 14.190 188.169,13.902 188.465,13.484 188.465 C 12.970 188.465,12.767 188.824,12.581 190.062 C 12.395 191.306,12.194 191.659,11.672 191.659 C 11.195 191.659,11.003 191.914,11.003 192.547 C 11.003 193.256,10.825 193.434,10.115 193.434 C 9.306 193.434,9.228 193.569,9.228 194.963 C 9.228 196.473,9.209 196.496,7.720 196.826 L 6.211 197.161 6.111 201.154 L 6.010 205.146 5.121 205.146 L 4.232 205.146 4.335 208.429 C 4.431 211.528,4.481 211.719,5.235 211.826 C 5.992 211.933,6.034 212.098,6.034 214.965 C 6.034 217.647,6.111 218.010,6.714 218.168 C 7.087 218.266,7.490 218.730,7.608 219.199 C 7.738 219.719,8.081 220.053,8.484 220.053 C 8.855 220.053,9.230 220.377,9.338 220.789 C 9.444 221.194,9.862 221.612,10.266 221.718 C 10.671 221.824,11.003 222.194,11.003 222.541 C 11.003 223.361,11.696 223.602,14.049 223.602 C 15.735 223.602,15.972 223.690,15.972 224.312 C 15.972 224.955,16.208 225.022,18.456 225.022 C 20.870 225.022,20.941 225.048,20.941 225.909 L 20.941 226.797 62.958 226.797 C 103.520 226.797,104.981 226.820,105.146 227.453 C 105.336 228.177,106.926 228.561,109.760 228.568 C 111.321 228.571,111.446 228.637,111.446 229.459 C 111.446 230.157,111.627 230.346,112.292 230.346 C 112.840 230.346,113.204 230.597,113.324 231.056 C 113.426 231.446,113.745 231.766,114.034 231.766 C 114.322 231.766,114.644 232.097,114.750 232.502 C 114.856 232.907,115.274 233.325,115.679 233.431 C 116.164 233.558,116.415 233.912,116.415 234.469 C 116.415 235.058,116.616 235.315,117.077 235.315 C 117.763 235.315,118.190 237.036,118.190 239.798 C 118.190 240.603,118.419 241.131,118.900 241.431 C 119.602 241.870,119.610 242.259,119.610 279.588 L 119.610 317.303 120.497 317.303 C 121.374 317.303,121.384 317.338,121.384 320.322 C 121.384 323.100,121.455 323.403,122.272 324.112 C 122.885 324.646,123.159 325.248,123.159 326.062 C 123.159 326.976,123.308 327.240,123.822 327.240 C 124.301 327.240,124.540 327.575,124.681 328.444 C 124.968 330.213,126.367 332.200,127.329 332.205 C 127.943 332.208,128.128 332.414,128.128 333.097 C 128.128 333.730,128.320 333.984,128.799 333.984 C 129.219 333.984,129.554 334.316,129.693 334.871 C 129.837 335.444,130.165 335.759,130.619 335.759 C 131.085 335.759,131.322 335.998,131.322 336.469 C 131.322 336.989,131.559 337.178,132.209 337.178 C 132.848 337.178,133.097 337.369,133.097 337.861 C 133.097 338.744,135.080 340.728,135.963 340.728 C 136.402 340.728,136.646 340.973,136.646 341.416 C 136.646 341.957,136.980 342.154,138.211 342.338 C 139.330 342.506,139.826 342.765,139.952 343.248 C 140.097 343.800,140.459 343.922,141.962 343.922 C 143.735 343.922,144.809 344.448,144.809 345.316 C 144.809 345.535,145.547 345.697,146.542 345.697 C 147.930 345.697,148.310 345.827,148.447 346.353 C 148.736 347.456,149.421 347.471,198.891 347.466 C 248.626 347.461,248.447 347.465,248.447 346.365 C 248.447 345.774,248.735 345.697,250.932 345.697 C 253.345 345.697,253.416 345.671,253.416 344.809 C 253.416 343.999,253.550 343.922,254.958 343.922 C 256.035 343.922,256.689 343.714,257.125 343.232 C 257.469 342.852,258.252 342.493,258.866 342.433 C 259.692 342.353,260.010 342.128,260.090 341.568 C 260.173 340.987,260.529 340.759,261.634 340.583 C 262.633 340.423,263.125 340.146,263.249 339.673 C 263.346 339.299,263.769 338.944,264.189 338.884 C 264.741 338.805,264.984 338.482,265.071 337.711 C 265.223 336.364,265.720 335.760,266.681 335.753 C 267.840 335.745,268.371 335.253,268.635 333.941 C 268.786 333.192,269.172 332.610,269.664 332.391 C 270.098 332.199,270.453 331.778,270.453 331.457 C 270.453 331.135,270.772 330.789,271.162 330.687 C 271.591 330.575,271.872 330.203,271.872 329.747 C 271.872 329.332,272.152 328.890,272.493 328.764 C 273.363 328.443,273.635 327.945,273.641 326.661 C 273.645 325.880,273.843 325.497,274.303 325.377 C 274.951 325.207,275.421 323.810,275.421 322.053 C 275.421 321.591,275.741 321.013,276.131 320.769 C 276.834 320.330,276.841 319.942,276.841 281.040 L 276.841 241.753 277.640 241.640 C 278.321 241.543,278.454 241.279,278.547 239.840 C 278.619 238.717,278.814 238.154,279.133 238.154 C 279.717 238.154,280.390 236.335,280.390 234.754 C 280.390 233.817,280.546 233.568,281.189 233.476 C 281.702 233.403,282.028 233.078,282.101 232.564 C 282.174 232.051,282.459 231.766,282.900 231.766 C 283.334 231.766,283.585 231.521,283.585 231.096 C 283.585 230.577,283.935 230.374,285.145 230.193 C 286.277 230.023,286.754 229.769,286.886 229.265 C 287.031 228.712,287.380 228.570,288.609 228.567 C 290.832 228.560,291.748 228.239,291.748 227.467 C 291.748 226.818,292.930 226.797,334.428 226.710 L 377.107 226.619 377.221 225.821 C 377.323 225.098,377.528 225.022,379.391 225.022 C 380.883 225.022,381.686 224.835,382.316 224.340 C 382.793 223.965,383.733 223.605,384.404 223.541 C 385.346 223.452,385.651 223.247,385.736 222.648 C 385.805 222.164,386.140 221.830,386.623 221.761 C 387.115 221.691,387.442 221.357,387.514 220.852 C 387.586 220.339,387.872 220.053,388.312 220.053 C 388.888 220.053,388.997 219.797,388.997 218.456 C 388.997 217.021,389.081 216.859,389.823 216.859 C 390.277 216.859,391.035 216.447,391.509 215.943 C 392.810 214.557,392.863 201.478,391.571 200.621 C 390.970 200.222,390.772 199.748,390.772 198.707 C 390.772 197.575,390.610 197.249,389.885 196.919 C 389.320 196.661,388.997 196.223,388.997 195.713 C 388.997 194.269,388.592 193.789,387.184 193.564 C 386.021 193.378,385.803 193.208,385.803 192.485 C 385.803 192.013,385.404 191.228,384.916 190.740 C 384.428 190.252,384.028 189.540,384.028 189.159 C 384.028 188.655,383.785 188.465,383.141 188.465 C 382.431 188.465,382.254 188.287,382.254 187.578 C 382.254 186.938,382.063 186.690,381.569 186.690 C 381.128 186.690,380.843 186.405,380.770 185.892 C 380.697 185.379,380.371 185.053,379.858 184.980 C 379.345 184.907,379.059 184.621,379.059 184.181 C 379.059 183.687,378.812 183.496,378.172 183.496 C 377.462 183.496,377.285 183.319,377.285 182.609 C 377.285 181.969,377.094 181.721,376.600 181.721 C 376.159 181.721,375.874 181.436,375.801 180.923 C 375.729 180.417,375.402 180.084,374.911 180.014 C 374.427 179.945,374.092 179.610,374.024 179.126 C 373.955 178.642,373.620 178.308,373.134 178.239 C 372.494 178.148,372.335 177.861,372.246 176.642 C 372.157 175.410,372.001 175.136,371.340 175.042 C 370.838 174.971,370.541 174.683,370.541 174.267 C 370.541 173.904,370.239 173.510,369.870 173.393 C 369.500 173.276,369.116 172.866,369.016 172.482 C 368.910 172.077,368.531 171.783,368.115 171.783 C 367.640 171.783,367.358 171.513,367.283 170.985 C 367.210 170.472,366.884 170.146,366.371 170.073 C 365.793 169.991,365.572 169.721,365.572 169.097 C 365.572 168.413,365.388 168.234,364.685 168.234 C 364.034 168.234,363.798 168.045,363.798 167.524 C 363.798 167.051,363.561 166.815,363.088 166.815 C 362.567 166.815,362.378 166.578,362.378 165.927 C 362.378 165.224,362.199 165.040,361.515 165.040 C 360.891 165.040,360.621 164.819,360.539 164.241 C 360.466 163.728,360.141 163.402,359.627 163.329 C 359.100 163.254,358.829 162.972,358.829 162.498 C 358.829 162.078,358.534 161.702,358.119 161.594 C 357.728 161.491,357.409 161.110,357.409 160.746 C 357.409 160.336,357.071 160.000,356.522 159.862 C 355.838 159.690,355.634 159.410,355.634 158.638 C 355.634 157.365,354.796 156.522,353.530 156.522 C 352.653 156.522,352.505 156.351,352.224 155.013 C 351.917 153.550,351.862 153.502,350.399 153.396 C 348.949 153.291,348.891 153.241,348.891 152.108 C 348.891 150.761,348.395 150.229,346.851 149.920 C 345.898 149.730,345.739 149.522,345.543 148.214 C 345.411 147.335,345.033 146.518,344.621 146.221 C 344.236 145.944,343.922 145.513,343.922 145.263 C 343.922 145.014,343.523 144.809,343.035 144.809 C 342.336 144.809,342.147 144.629,342.147 143.963 C 342.147 143.416,341.897 143.052,341.437 142.932 C 341.047 142.830,340.728 142.492,340.728 142.181 C 340.728 141.814,340.416 141.615,339.840 141.615 C 339.130 141.615,338.953 141.437,338.953 140.728 C 338.953 140.018,338.776 139.840,338.066 139.840 C 337.356 139.840,337.178 139.663,337.178 138.953 C 337.178 138.243,337.001 138.066,336.291 138.066 C 335.627 138.066,335.404 137.879,335.404 137.323 C 335.404 136.878,335.119 136.505,334.694 136.394 C 334.301 136.291,333.984 135.910,333.984 135.540 C 333.984 135.063,333.729 134.871,333.097 134.871 C 332.282 134.871,332.209 134.741,332.209 133.281 C 332.209 131.881,332.103 131.664,331.322 131.468 C 330.767 131.328,330.435 130.994,330.435 130.574 C 330.435 130.152,330.185 129.902,329.763 129.902 C 329.343 129.902,329.009 129.570,328.869 129.015 C 328.729 128.456,328.396 128.128,327.968 128.128 C 327.535 128.128,327.249 127.839,327.176 127.329 C 327.104 126.816,326.778 126.490,326.264 126.417 C 325.770 126.347,325.466 126.058,325.466 125.657 C 325.466 125.263,325.119 124.923,324.579 124.788 C 324.006 124.644,323.691 124.316,323.691 123.862 C 323.691 123.404,323.452 123.159,323.006 123.159 C 322.566 123.159,322.280 122.873,322.207 122.360 C 322.136 121.860,321.809 121.521,321.331 121.453 C 320.777 121.374,320.506 121.011,320.340 120.126 C 320.214 119.456,319.810 118.747,319.441 118.549 C 319.072 118.352,318.669 117.871,318.545 117.481 C 318.389 116.990,317.888 116.702,316.924 116.548 C 315.810 116.370,315.527 116.172,315.523 115.571 C 315.511 113.730,315.146 113.260,313.539 113.019 C 312.012 112.790,311.979 112.757,311.979 111.444 C 311.979 109.989,311.592 109.672,309.820 109.672 C 308.912 109.672,308.784 109.544,308.784 108.636 C 308.784 106.851,308.470 106.477,306.972 106.477 C 305.594 106.477,305.590 106.473,305.590 105.046 C 305.590 103.522,303.761 101.154,302.585 101.154 C 302.286 101.154,302.041 100.926,302.041 100.648 C 302.041 99.993,300.007 97.959,299.352 97.959 C 299.074 97.959,298.846 97.704,298.846 97.392 C 298.846 96.626,296.808 94.765,295.970 94.765 C 295.489 94.765,295.297 94.512,295.297 93.878 C 295.297 93.238,295.106 92.990,294.612 92.990 C 294.172 92.990,293.886 92.705,293.814 92.192 C 293.742 91.685,293.415 91.352,292.921 91.282 C 292.281 91.191,292.122 90.904,292.034 89.685 C 291.944 88.454,291.788 88.179,291.127 88.085 C 290.549 88.003,290.328 87.734,290.328 87.109 C 290.328 86.426,290.144 86.247,289.441 86.247 C 288.731 86.247,288.554 86.069,288.554 85.359 C 288.554 84.727,288.362 84.472,287.885 84.472 C 287.515 84.472,287.134 84.155,287.031 83.762 C 286.920 83.337,286.547 83.052,286.102 83.052 C 285.546 83.052,285.359 82.829,285.359 82.165 C 285.359 81.455,285.182 81.278,284.472 81.278 C 283.762 81.278,283.585 81.100,283.585 80.390 C 283.585 79.758,283.393 79.503,282.916 79.503 C 282.538 79.503,282.164 79.183,282.055 78.767 C 281.949 78.362,281.550 77.949,281.167 77.849 C 280.685 77.723,280.404 77.248,280.253 76.302 C 280.106 75.381,279.810 74.865,279.343 74.717 C 278.963 74.597,278.553 74.187,278.433 73.806 C 278.312 73.426,277.915 73.114,277.551 73.114 C 277.187 73.114,276.790 72.803,276.669 72.423 C 276.549 72.042,276.149 71.635,275.781 71.519 C 275.413 71.402,275.061 70.954,275.000 70.524 C 274.920 69.959,274.605 69.710,273.859 69.625 C 272.554 69.476,271.961 68.883,271.812 67.579 C 271.710 66.686,271.493 66.504,270.186 66.214 C 268.929 65.935,268.678 65.739,268.678 65.037 C 268.678 63.908,268.063 62.822,267.423 62.822 C 267.105 62.822,266.903 62.477,266.903 61.934 C 266.903 61.224,266.726 61.047,266.016 61.047 C 265.376 61.047,265.129 60.856,265.129 60.361 C 265.129 59.984,264.809 59.574,264.419 59.450 C 264.028 59.326,263.709 58.916,263.709 58.539 C 263.709 58.044,263.462 57.853,262.822 57.853 C 262.112 57.853,261.934 57.675,261.934 56.965 C 261.934 56.477,261.763 56.078,261.554 56.078 C 261.063 56.078,260.160 55.175,260.160 54.684 C 260.160 54.475,259.840 54.303,259.450 54.303 C 259.054 54.303,258.740 54.067,258.740 53.768 C 258.740 52.888,256.920 51.109,256.019 51.109 C 255.379 51.109,255.191 50.914,255.191 50.248 C 255.191 49.751,254.815 49.090,254.303 48.688 C 253.763 48.263,253.416 47.629,253.416 47.065 C 253.416 46.394,253.232 46.140,252.745 46.140 C 252.325 46.140,251.990 45.808,251.851 45.253 C 251.710 44.694,251.377 44.366,250.950 44.366 C 250.516 44.366,250.230 44.077,250.158 43.567 C 250.085 43.054,249.759 42.728,249.246 42.655 C 248.733 42.582,248.447 42.297,248.447 41.856 C 248.447 41.421,248.203 41.171,247.776 41.171 C 247.356 41.171,247.021 40.839,246.882 40.284 C 246.741 39.725,246.408 39.397,245.981 39.397 C 245.547 39.397,245.261 39.108,245.189 38.598 C 245.116 38.085,244.790 37.759,244.277 37.686 C 243.782 37.616,243.478 37.326,243.478 36.926 C 243.478 36.532,243.131 36.192,242.591 36.057 C 242.018 35.913,241.704 35.585,241.704 35.131 C 241.704 34.678,241.465 34.428,241.034 34.428 C 240.513 34.428,240.312 34.074,240.125 32.831 C 239.935 31.561,239.742 31.233,239.189 31.233 C 238.772 31.233,238.356 30.877,238.154 30.346 C 237.969 29.858,237.585 29.459,237.301 29.459 C 237.016 29.459,236.733 29.099,236.671 28.660 C 236.598 28.147,236.272 27.821,235.759 27.748 C 235.264 27.678,234.960 27.388,234.960 26.988 C 234.960 26.603,234.618 26.256,234.115 26.129 C 233.650 26.013,233.186 25.596,233.084 25.204 C 232.981 24.811,232.654 24.490,232.356 24.490 C 232.059 24.490,231.764 24.130,231.702 23.691 C 231.630 23.184,231.303 22.852,230.806 22.781 C 230.376 22.720,229.932 22.378,229.819 22.021 C 229.705 21.664,229.299 21.290,228.915 21.190 C 228.510 21.084,228.217 20.704,228.217 20.288 C 228.217 19.880,227.909 19.471,227.507 19.343 C 227.116 19.219,226.797 18.809,226.797 18.432 C 226.797 17.937,226.550 17.746,225.909 17.746 C 225.200 17.746,225.022 17.569,225.022 16.859 C 225.022 16.219,224.831 15.972,224.337 15.972 C 223.897 15.972,223.611 15.686,223.538 15.173 C 223.466 14.660,223.140 14.334,222.626 14.261 C 222.147 14.193,221.828 13.900,221.828 13.529 C 221.828 12.865,220.348 11.612,219.093 11.213 C 218.670 11.079,218.274 10.617,218.212 10.187 C 218.121 9.543,217.836 9.386,216.593 9.296 C 215.584 9.223,215.084 9.022,215.084 8.688 C 215.084 8.018,213.958 7.453,212.623 7.453 C 212.008 7.453,211.226 7.145,210.825 6.744 C 210.307 6.226,209.642 6.034,208.365 6.034 C 206.821 6.034,206.602 5.940,206.502 5.235 C 206.389 4.440,206.356 4.436,199.088 4.341 L 191.787 4.245 191.308 5.139 M201.661 40.195 C 201.734 40.708,202.060 41.034,202.573 41.107 C 203.086 41.180,203.372 41.465,203.372 41.906 C 203.372 42.400,203.619 42.591,204.259 42.591 C 204.923 42.591,205.146 42.778,205.146 43.334 C 205.146 43.763,205.429 44.151,205.813 44.251 C 206.180 44.347,206.655 44.811,206.870 45.283 C 207.085 45.754,207.485 46.140,207.759 46.140 C 208.034 46.140,208.341 46.460,208.444 46.850 C 208.555 47.275,208.928 47.560,209.372 47.560 C 209.928 47.560,210.115 47.783,210.115 48.447 C 210.115 49.157,210.293 49.335,211.003 49.335 C 211.667 49.335,211.890 49.522,211.890 50.078 C 211.890 50.522,212.175 50.895,212.600 51.006 C 212.990 51.108,213.310 51.490,213.310 51.854 C 213.310 52.263,213.647 52.600,214.197 52.738 C 214.752 52.877,215.084 53.212,215.084 53.632 C 215.084 54.112,215.338 54.303,215.972 54.303 C 216.681 54.303,216.859 54.481,216.859 55.191 C 216.859 55.831,217.050 56.078,217.544 56.078 C 217.984 56.078,218.270 56.363,218.343 56.877 C 218.416 57.390,218.741 57.716,219.255 57.789 C 219.839 57.872,220.053 58.139,220.053 58.788 C 220.053 60.399,220.661 61.047,222.175 61.047 C 223.553 61.047,223.562 61.057,223.671 62.555 C 223.777 64.018,223.825 64.073,225.288 64.381 C 226.697 64.676,226.797 64.775,226.797 65.876 C 226.797 67.168,227.529 67.791,229.049 67.791 C 229.803 67.791,229.964 68.000,230.176 69.254 C 230.346 70.261,230.632 70.771,231.094 70.892 C 231.516 71.002,231.766 71.382,231.766 71.914 C 231.766 72.579,231.955 72.760,232.653 72.760 C 233.363 72.760,233.540 72.937,233.540 73.647 C 233.540 74.135,233.711 74.534,233.921 74.534 C 234.412 74.534,235.315 75.437,235.315 75.929 C 235.315 76.138,235.634 76.309,236.025 76.309 C 236.498 76.309,236.735 76.545,236.735 77.019 C 236.735 77.409,236.906 77.728,237.115 77.728 C 237.324 77.728,237.723 77.957,238.002 78.236 C 238.281 78.514,238.509 78.914,238.509 79.123 C 238.509 79.332,238.909 79.503,239.397 79.503 C 240.106 79.503,240.284 79.681,240.284 80.390 C 240.284 81.041,240.473 81.278,240.994 81.278 C 241.467 81.278,241.704 81.514,241.704 81.988 C 241.704 82.508,241.940 82.697,242.591 82.697 C 243.301 82.697,243.478 82.875,243.478 83.585 C 243.478 84.289,243.657 84.472,244.345 84.472 C 245.111 84.472,245.225 84.647,245.321 85.980 C 245.412 87.234,245.565 87.508,246.229 87.602 C 246.807 87.684,247.028 87.954,247.028 88.578 C 247.028 89.194,247.224 89.441,247.713 89.441 C 248.153 89.441,248.438 89.726,248.511 90.240 C 248.583 90.745,248.910 91.079,249.401 91.149 C 249.885 91.218,250.220 91.552,250.289 92.036 C 250.359 92.528,250.693 92.854,251.198 92.926 C 251.700 92.997,251.996 93.285,251.996 93.701 C 251.996 94.065,252.308 94.461,252.688 94.582 C 253.069 94.702,253.479 95.112,253.599 95.493 C 253.720 95.873,254.116 96.185,254.480 96.185 C 254.896 96.185,255.184 96.481,255.255 96.983 C 255.327 97.488,255.653 97.822,256.145 97.892 C 256.629 97.961,256.963 98.296,257.032 98.780 C 257.102 99.271,257.436 99.598,257.941 99.670 C 258.511 99.751,258.740 100.023,258.740 100.617 C 258.740 101.803,259.095 102.573,259.641 102.573 C 259.900 102.573,260.224 102.933,260.361 103.372 C 260.684 104.408,261.149 104.691,262.535 104.697 C 263.613 104.702,263.673 104.776,263.777 106.211 C 263.886 107.712,263.894 107.720,265.395 107.829 C 266.793 107.930,266.903 108.012,266.903 108.953 C 266.903 110.654,267.235 111.044,268.887 111.292 L 270.453 111.527 270.453 113.084 C 270.453 114.385,270.565 114.641,271.138 114.641 C 271.578 114.641,271.863 114.926,271.936 115.439 C 272.009 115.952,272.335 116.278,272.848 116.351 C 273.369 116.425,273.647 116.709,273.647 117.166 C 273.647 118.083,275.189 119.610,276.115 119.610 C 276.595 119.610,276.841 119.841,276.841 120.292 C 276.841 121.176,278.824 123.159,279.708 123.159 C 280.083 123.159,280.390 123.386,280.390 123.664 C 280.390 124.306,282.418 126.353,283.055 126.353 C 283.319 126.353,283.586 126.713,283.649 127.152 C 283.722 127.665,284.048 127.991,284.561 128.064 C 285.252 128.162,285.359 128.389,285.359 129.750 C 285.359 131.190,285.434 131.322,286.247 131.322 C 286.957 131.322,287.134 131.500,287.134 132.209 C 287.134 132.857,287.324 133.097,287.837 133.097 C 288.291 133.097,288.619 133.411,288.763 133.984 C 288.902 134.539,289.237 134.871,289.657 134.871 C 290.092 134.871,290.328 135.122,290.328 135.581 C 290.328 136.102,290.565 136.291,291.216 136.291 C 291.925 136.291,292.103 136.469,292.103 137.178 C 292.103 137.888,292.280 138.066,292.990 138.066 C 293.700 138.066,293.878 138.243,293.878 138.953 C 293.878 139.585,294.070 139.840,294.546 139.840 C 294.924 139.840,295.298 140.160,295.407 140.576 C 295.513 140.981,295.931 141.399,296.336 141.505 C 296.752 141.614,297.072 141.988,297.072 142.366 C 297.072 142.843,297.327 143.035,297.959 143.035 C 298.759 143.035,298.846 143.176,298.846 144.463 C 298.846 145.660,298.990 145.946,299.734 146.229 C 300.277 146.435,300.621 146.845,300.621 147.285 C 300.621 147.815,300.854 148.004,301.508 148.004 C 302.141 148.004,302.396 148.196,302.396 148.672 C 302.396 149.042,302.713 149.423,303.106 149.526 C 303.521 149.635,303.815 150.010,303.815 150.431 C 303.815 150.868,304.128 151.245,304.614 151.392 C 305.582 151.686,307.365 153.529,307.365 154.237 C 307.365 154.545,307.717 154.747,308.252 154.747 C 308.827 154.747,309.139 154.946,309.139 155.313 C 309.139 155.624,309.459 155.962,309.849 156.064 C 310.318 156.187,310.559 156.548,310.559 157.129 C 310.559 157.695,310.800 158.071,311.236 158.185 C 311.608 158.282,311.993 158.667,312.090 159.039 C 312.193 159.433,312.578 159.716,313.010 159.716 C 313.566 159.716,313.753 159.939,313.753 160.603 C 313.753 161.091,313.924 161.491,314.134 161.491 C 314.625 161.491,315.528 162.394,315.528 162.885 C 315.528 163.094,315.927 163.265,316.415 163.265 C 317.125 163.265,317.303 163.443,317.303 164.153 C 317.303 165.292,318.471 166.460,319.610 166.460 C 320.324 166.460,320.497 166.636,320.497 167.363 C 320.497 168.437,321.950 170.009,322.943 170.009 C 323.506 170.009,323.696 170.330,323.887 171.606 C 324.070 172.825,324.279 173.203,324.772 173.203 C 325.170 173.203,325.460 173.508,325.530 174.002 C 325.602 174.507,325.929 174.841,326.420 174.911 C 326.904 174.980,327.238 175.314,327.307 175.798 C 327.377 176.290,327.711 176.617,328.217 176.688 C 328.730 176.761,329.015 177.047,329.015 177.487 C 329.015 177.927,329.260 178.172,329.700 178.172 C 330.141 178.172,330.426 178.458,330.499 178.971 C 330.571 179.476,330.897 179.810,331.389 179.880 C 331.873 179.949,332.207 180.283,332.276 180.767 C 332.345 181.251,332.680 181.586,333.164 181.654 C 333.648 181.723,333.982 182.058,334.051 182.542 C 334.121 183.033,334.455 183.360,334.960 183.432 C 335.473 183.505,335.759 183.790,335.759 184.231 C 335.759 184.671,336.003 184.916,336.444 184.916 C 336.884 184.916,337.170 185.201,337.242 185.714 C 337.314 186.221,337.641 186.553,338.135 186.624 C 338.774 186.715,338.934 187.001,339.022 188.221 C 339.111 189.439,339.271 189.727,339.907 189.818 C 340.391 189.887,340.726 190.221,340.795 190.705 C 340.864 191.197,341.198 191.523,341.704 191.595 C 342.205 191.666,342.502 191.954,342.502 192.370 C 342.502 192.734,342.804 193.127,343.174 193.244 C 343.543 193.361,343.927 193.772,344.028 194.155 C 344.134 194.560,344.513 194.854,344.929 194.854 C 345.404 194.854,345.686 195.124,345.761 195.652 C 345.832 196.158,346.159 196.491,346.651 196.561 C 347.135 196.630,347.469 196.965,347.538 197.449 C 347.608 197.940,347.942 198.267,348.447 198.339 C 348.886 198.401,349.246 198.696,349.246 198.993 C 349.246 199.291,349.565 199.618,349.956 199.720 C 350.415 199.840,350.665 200.204,350.665 200.751 C 350.665 201.417,350.855 201.597,351.553 201.597 C 352.263 201.597,352.440 201.775,352.440 202.484 L 352.440 203.372 313.262 203.372 L 274.083 203.372 273.502 204.259 C 273.064 204.928,272.612 205.146,271.670 205.146 C 270.810 205.146,270.144 205.423,269.533 206.034 C 268.935 206.632,268.253 206.921,267.440 206.921 C 266.668 206.921,266.067 207.158,265.770 207.580 C 265.515 207.942,264.947 208.352,264.508 208.491 C 264.055 208.634,263.709 209.030,263.709 209.405 C 263.709 209.820,263.412 210.108,262.910 210.179 C 262.405 210.251,262.071 210.578,262.001 211.070 C 261.932 211.553,261.598 211.888,261.114 211.957 C 260.622 212.027,260.296 212.361,260.224 212.866 C 260.151 213.379,259.866 213.665,259.425 213.665 C 258.985 213.665,258.740 213.909,258.740 214.350 C 258.740 214.790,258.455 215.075,257.941 215.148 C 257.393 215.226,257.110 215.539,257.039 216.149 C 256.892 217.413,256.216 218.634,255.663 218.634 C 255.403 218.634,255.191 218.953,255.191 219.343 C 255.191 219.743,254.954 220.053,254.650 220.053 C 254.052 220.053,253.416 221.417,253.416 222.697 C 253.416 223.221,253.159 223.587,252.706 223.705 C 252.041 223.879,251.996 224.189,251.996 228.691 C 251.996 233.399,251.981 233.493,251.198 233.604 C 249.702 233.817,249.952 241.704,251.455 241.704 C 252.379 241.704,252.140 243.408,251.198 243.542 L 250.399 243.656 250.309 276.398 C 250.220 308.496,250.205 309.139,249.532 309.139 C 248.993 309.139,248.795 309.475,248.611 310.704 C 248.443 311.823,248.184 312.320,247.702 312.446 C 247.320 312.546,247.028 312.933,247.028 313.340 C 247.028 313.814,246.757 314.098,246.233 314.172 C 245.795 314.235,245.383 314.571,245.317 314.919 C 245.146 315.815,243.570 317.303,242.791 317.303 C 242.388 317.303,242.050 317.644,241.913 318.190 L 241.690 319.077 235.397 319.097 C 228.107 319.120,162.914 319.117,158.030 319.093 C 154.769 319.077,154.747 319.071,154.747 318.190 C 154.747 317.546,154.557 317.303,154.053 317.303 C 153.672 317.303,152.960 316.903,152.472 316.415 C 151.984 315.927,151.179 315.528,150.682 315.528 C 150.005 315.528,149.778 315.344,149.778 314.795 C 149.778 313.762,149.138 312.689,148.523 312.689 C 148.201 312.689,148.004 312.340,148.004 311.768 C 148.004 311.146,147.773 310.787,147.294 310.662 C 146.591 310.478,146.584 310.178,146.584 279.873 C 146.584 244.739,146.426 238.706,145.481 237.762 C 145.095 237.376,144.807 236.467,144.741 235.424 C 144.648 233.965,144.516 233.701,143.833 233.604 C 142.802 233.458,142.753 232.047,143.744 231.056 C 144.665 230.135,144.665 228.390,143.744 227.602 C 143.254 227.181,143.034 226.553,143.033 225.564 C 143.030 223.713,142.428 221.567,141.813 221.217 C 141.546 221.065,141.273 220.541,141.205 220.053 C 141.136 219.551,140.736 219.014,140.284 218.816 C 139.816 218.610,139.485 218.153,139.485 217.710 C 139.485 216.584,138.153 215.084,137.153 215.084 C 136.470 215.084,136.291 214.900,136.291 214.197 C 136.291 213.546,136.102 213.310,135.581 213.310 C 135.185 213.310,134.871 213.073,134.871 212.774 C 134.871 211.910,133.051 210.115,132.175 210.115 C 131.612 210.115,131.338 209.877,131.258 209.317 C 131.187 208.817,130.860 208.478,130.382 208.410 C 129.963 208.350,129.539 207.990,129.439 207.611 C 129.284 207.016,128.938 206.921,126.919 206.921 C 124.659 206.921,124.579 206.890,124.579 206.034 C 124.579 205.324,124.401 205.146,123.691 205.146 C 123.059 205.146,122.804 204.954,122.804 204.478 C 122.804 203.383,122.772 203.382,81.189 203.377 L 41.171 203.372 41.171 202.484 C 41.171 201.834,41.361 201.597,41.881 201.597 C 42.341 201.597,42.591 201.361,42.591 200.926 C 42.591 200.506,42.923 200.171,43.478 200.032 C 44.051 199.888,44.366 199.560,44.366 199.106 C 44.366 198.653,44.604 198.403,45.037 198.403 C 45.802 198.403,46.140 197.742,46.140 196.244 C 46.140 195.467,46.307 195.209,46.809 195.209 C 47.187 195.209,47.561 194.889,47.670 194.472 C 47.776 194.067,48.193 193.650,48.598 193.544 C 49.084 193.417,49.335 193.063,49.335 192.505 C 49.335 191.855,49.527 191.659,50.163 191.659 C 51.063 191.659,52.884 189.880,52.884 189.000 C 52.884 188.706,53.125 188.465,53.419 188.465 C 54.360 188.465,56.078 186.643,56.078 185.646 C 56.078 184.659,56.997 183.669,58.411 183.131 C 59.025 182.898,59.272 182.533,59.272 181.858 C 59.272 180.786,60.138 179.975,61.301 179.958 C 62.186 179.945,62.822 179.003,62.822 177.703 C 62.822 176.944,63.025 176.803,64.419 176.594 C 65.905 176.371,66.016 176.280,66.016 175.286 C 66.016 174.217,66.695 173.203,67.410 173.203 C 67.619 173.203,67.791 172.804,67.791 172.316 C 67.791 171.652,67.978 171.429,68.534 171.429 C 68.966 171.429,69.351 171.146,69.454 170.752 C 69.551 170.379,69.936 169.995,70.308 169.897 C 70.702 169.794,70.985 169.410,70.985 168.977 C 70.985 168.421,71.208 168.234,71.872 168.234 C 72.582 168.234,72.760 168.057,72.760 167.347 C 72.760 166.683,72.947 166.460,73.503 166.460 C 73.935 166.460,74.320 166.177,74.423 165.783 C 74.520 165.410,74.916 165.023,75.303 164.922 C 75.690 164.820,76.089 164.421,76.190 164.034 C 76.292 163.647,76.679 163.251,77.051 163.154 C 77.446 163.051,77.728 162.666,77.728 162.234 C 77.728 161.678,77.952 161.491,78.616 161.491 C 79.319 161.491,79.503 161.312,79.503 160.628 C 79.503 160.004,79.724 159.734,80.302 159.652 C 80.966 159.558,81.119 159.284,81.209 158.030 C 81.298 156.811,81.451 156.522,82.008 156.522 C 82.507 156.522,82.697 156.276,82.697 155.634 C 82.697 154.925,82.875 154.747,83.585 154.747 C 84.225 154.747,84.472 154.556,84.472 154.062 C 84.472 153.622,84.757 153.336,85.271 153.263 C 85.776 153.192,86.110 152.865,86.180 152.373 C 86.249 151.889,86.583 151.555,87.067 151.486 C 87.559 151.416,87.885 151.082,87.957 150.577 C 88.030 150.064,88.316 149.778,88.756 149.778 C 89.250 149.778,89.441 149.531,89.441 148.891 C 89.441 148.257,89.633 148.004,90.113 148.004 C 90.945 148.004,92.990 146.145,92.990 145.389 C 92.990 145.084,93.310 144.663,93.700 144.454 C 94.091 144.245,94.410 143.761,94.410 143.377 C 94.410 142.993,94.533 142.680,94.682 142.680 C 94.832 142.680,95.671 141.993,96.547 141.154 C 97.422 140.315,98.415 139.523,98.753 139.393 C 99.129 139.249,99.455 138.604,99.595 137.724 C 99.816 136.344,99.874 136.291,101.161 136.291 C 102.610 136.291,102.928 135.903,102.928 134.132 C 102.928 133.225,103.056 133.097,103.964 133.097 C 105.737 133.097,106.122 132.780,106.122 131.323 C 106.122 130.186,106.259 129.945,107.010 129.757 C 107.569 129.616,107.897 129.283,107.897 128.856 C 107.897 128.422,108.186 128.136,108.696 128.064 C 109.209 127.991,109.535 127.665,109.608 127.152 C 109.680 126.642,109.966 126.353,110.399 126.353 C 110.827 126.353,111.160 126.025,111.301 125.466 C 111.440 124.911,111.775 124.579,112.195 124.579 C 112.617 124.579,112.866 124.329,112.866 123.907 C 112.866 123.487,113.198 123.152,113.753 123.013 C 114.313 122.873,114.641 122.540,114.641 122.112 C 114.641 121.679,114.929 121.393,115.439 121.320 C 115.952 121.247,116.278 120.921,116.351 120.408 C 116.424 119.895,116.709 119.610,117.150 119.610 C 117.590 119.610,117.835 119.365,117.835 118.924 C 117.835 118.484,118.120 118.199,118.634 118.126 C 119.117 118.057,119.473 117.728,119.535 117.292 C 119.592 116.895,119.991 116.416,120.423 116.227 C 121.023 115.963,121.232 115.530,121.316 114.374 C 121.412 113.041,121.526 112.866,122.292 112.866 C 122.922 112.866,123.159 112.672,123.159 112.156 C 123.159 111.683,123.395 111.446,123.869 111.446 C 124.389 111.446,124.579 111.210,124.579 110.559 C 124.579 109.849,124.756 109.672,125.466 109.672 C 126.176 109.672,126.353 109.494,126.353 108.784 C 126.353 108.075,126.531 107.897,127.240 107.897 C 127.891 107.897,128.128 107.708,128.128 107.187 C 128.128 106.714,128.364 106.477,128.838 106.477 C 129.358 106.477,129.547 106.241,129.547 105.590 C 129.547 104.880,129.725 104.703,130.435 104.703 C 131.145 104.703,131.322 104.525,131.322 103.815 C 131.322 103.106,131.500 102.928,132.209 102.928 C 132.908 102.928,133.097 102.748,133.097 102.082 C 133.097 101.539,133.347 101.171,133.797 101.053 C 134.294 100.923,134.564 100.448,134.729 99.415 C 134.866 98.560,135.156 97.959,135.432 97.959 C 136.640 97.959,137.707 97.100,137.922 95.953 C 138.075 95.136,138.341 94.765,138.774 94.765 C 139.120 94.765,139.649 94.390,139.949 93.932 C 140.250 93.474,140.988 92.895,141.590 92.646 C 142.471 92.281,142.728 91.923,142.905 90.816 C 143.106 89.561,143.222 89.441,144.233 89.436 C 145.736 89.428,146.086 89.129,146.364 87.617 C 146.523 86.750,146.832 86.265,147.302 86.142 C 147.709 86.035,148.004 85.657,148.004 85.240 C 148.004 84.765,148.274 84.483,148.802 84.408 C 149.315 84.335,149.641 84.009,149.714 83.496 C 149.789 82.968,150.071 82.697,150.546 82.697 C 150.954 82.697,151.341 82.405,151.441 82.020 C 151.539 81.648,151.923 81.264,152.295 81.166 C 152.680 81.066,152.972 80.679,152.972 80.271 C 152.972 79.796,153.243 79.514,153.771 79.439 C 154.284 79.366,154.610 79.040,154.683 78.527 C 154.765 77.949,155.035 77.728,155.659 77.728 C 156.298 77.728,156.522 77.536,156.522 76.985 C 156.522 76.541,156.807 76.168,157.232 76.057 C 157.622 75.955,157.941 75.646,157.941 75.371 C 157.941 75.096,158.341 74.720,158.829 74.534 C 159.595 74.243,159.716 73.977,159.716 72.591 C 159.716 71.114,159.788 70.985,160.603 70.985 C 161.243 70.985,161.491 70.794,161.491 70.300 C 161.491 69.859,161.776 69.574,162.289 69.501 C 162.802 69.428,163.128 69.102,163.201 68.589 C 163.274 68.076,163.560 67.791,164.000 67.791 C 164.494 67.791,164.685 67.543,164.685 66.903 C 164.685 66.193,164.862 66.016,165.572 66.016 C 166.212 66.016,166.460 65.825,166.460 65.331 C 166.460 64.890,166.745 64.605,167.258 64.532 C 167.764 64.460,168.097 64.134,168.167 63.642 C 168.236 63.158,168.571 62.824,169.055 62.755 C 169.546 62.685,169.873 62.351,169.945 61.846 C 170.018 61.332,170.303 61.047,170.743 61.047 C 171.238 61.047,171.429 60.800,171.429 60.160 C 171.429 59.450,171.606 59.272,172.316 59.272 C 173.014 59.272,173.203 59.092,173.203 58.426 C 173.203 57.883,173.453 57.515,173.903 57.398 C 174.400 57.268,174.671 56.793,174.836 55.759 C 175.030 54.546,175.204 54.303,175.881 54.303 C 177.338 54.303,177.816 53.902,178.042 52.490 C 178.221 51.369,178.410 51.109,179.046 51.109 C 179.987 51.109,181.721 49.271,181.721 48.273 C 181.721 47.797,181.957 47.560,182.431 47.560 C 182.904 47.560,183.141 47.323,183.141 46.850 C 183.141 46.339,183.378 46.140,183.987 46.140 C 184.545 46.140,184.899 45.889,185.025 45.404 C 185.131 44.999,185.549 44.581,185.954 44.475 C 186.439 44.348,186.690 43.994,186.690 43.437 C 186.690 42.771,186.879 42.591,187.578 42.591 C 188.066 42.591,188.772 42.284,189.146 41.910 C 189.521 41.535,190.200 41.175,190.655 41.111 C 191.196 41.034,191.521 40.718,191.595 40.195 C 191.707 39.411,191.797 39.397,196.628 39.397 C 201.460 39.397,201.550 39.411,201.661 40.195 " stroke="none" fill="#040404" fill-rule="evenodd"></path><path id="path1" d="" stroke="none" fill="#080404" fill-rule="evenodd"></path><path id="path2" d="" stroke="none" fill="#080404" fill-rule="evenodd"></path><path id="path3" d="" stroke="none" fill="#080404" fill-rule="evenodd"></path><path id="path4" d="" stroke="none" fill="#080404" fill-rule="evenodd"></path></g></svg>